<svg width="70" height="70" viewBox="0 0 70 70" fill="none" xmlns="http://www.w3.org/2000/svg">
<path d="M16.8874 38.2943L40.8712 59.2768C43.6974 61.7531 48.1249 59.7406 48.1249 55.9824V14.0174C48.1257 13.1764 47.8839 12.3529 47.4287 11.6457C46.9735 10.9385 46.324 10.3775 45.5582 10.0298C44.7923 9.68222 43.9424 9.56272 43.1104 9.68567C42.2784 9.80861 41.4994 10.1688 40.8668 10.7231L16.8918 31.7056C16.4219 32.1162 16.0453 32.6226 15.7872 33.1908C15.5292 33.759 15.3957 34.3759 15.3957 34.9999C15.3957 35.624 15.5292 36.2408 15.7872 36.809C16.0453 37.3772 16.4219 37.8837 16.8918 38.2943H16.8874Z" fill="black"/>
</svg>
