<svg width="70" height="70" viewBox="0 0 70 70" fill="none" xmlns="http://www.w3.org/2000/svg">
<path d="M53.1125 38.2943L29.1288 59.2768C26.3025 61.753 21.875 59.7405 21.875 55.9824V14.0174C21.8743 13.1764 22.116 12.3529 22.5712 11.6457C23.0265 10.9385 23.6759 10.3775 24.4418 10.0298C25.2077 9.68222 26.0575 9.56272 26.8895 9.68567C27.7216 9.80861 28.5005 10.1688 29.1331 10.723L53.1081 31.7056C53.578 32.1162 53.9547 32.6226 54.2127 33.1908C54.4708 33.759 54.6043 34.3759 54.6043 34.9999C54.6043 35.624 54.4708 36.2408 54.2127 36.809C53.9547 37.3772 53.578 37.8837 53.1081 38.2943H53.1125Z" fill="black"/>
</svg>
