<svg width="102" height="83" viewBox="0 0 102 83" fill="none" xmlns="http://www.w3.org/2000/svg">
<path d="M1.00326 28.8853C0.79494 38.8443 10.5026 63.4098 50.9998 82C91.497 63.4098 101.205 38.8443 100.996 28.8853C101.494 -8.11137 51.4976 -8.29418 51.0035 28.3368C51.0035 28.5187 51.0023 28.7015 50.9998 28.8853C50.9998 28.7015 51.001 28.5187 51.0035 28.3368C51.0019 -8.29418 1.00326 -8.11137 1.00326 28.8853Z" fill="black"/>
<path d="M51.0035 28.3368C51.001 28.5187 50.9998 28.7016 50.9998 28.8853C51.0023 28.7016 51.0035 28.5187 51.0035 28.3368ZM51.0035 28.3368C51.0019 -8.29418 1.00326 -8.11137 1.00326 28.8853C0.79494 38.8443 10.5026 63.4098 50.9998 82C91.497 63.4098 101.205 38.8443 100.996 28.8853C101.494 -8.11137 51.4976 -8.29418 51.0035 28.3368Z" stroke="black"/>
</svg>
