<svg width="852" height="252" viewBox="0 0 852 252" fill="none" xmlns="http://www.w3.org/2000/svg">
<path fill-rule="evenodd" clip-rule="evenodd" d="M125.911 252C195.45 252 251.823 195.588 251.823 126C251.823 56.4121 195.45 0 125.911 0C56.3724 0 0 56.4121 0 126C0 195.588 56.3724 252 125.911 252ZM125.911 229.32C182.933 229.32 229.159 183.062 229.159 126C229.159 68.9379 182.933 22.68 125.911 22.68C68.8894 22.68 22.664 68.9379 22.664 126C22.664 183.062 68.8894 229.32 125.911 229.32Z" fill="black"/>
<path fill-rule="evenodd" clip-rule="evenodd" d="M377.734 252C447.273 252 503.645 195.588 503.645 126C503.645 56.4121 447.273 0 377.734 0C308.195 0 251.823 56.4121 251.823 126C251.823 195.588 308.195 252 377.734 252ZM377.734 229.32C434.756 229.32 480.981 183.062 480.981 126C480.981 68.9379 434.756 22.68 377.734 22.68C320.712 22.68 274.487 68.9379 274.487 126C274.487 183.062 320.712 229.32 377.734 229.32Z" fill="black"/>
<path fill-rule="evenodd" clip-rule="evenodd" d="M726.089 252C795.628 252 852 195.588 852 126C852 56.4121 795.628 0 726.089 0C726.089 0 726.089 0 726.089 0V22.68C726.089 22.68 726.089 22.68 726.089 22.68C783.111 22.68 829.336 68.9379 829.336 126C829.336 183.062 783.111 229.32 726.089 229.32V252Z" fill="black"/>
<rect x="703.425" width="22.664" height="252" fill="black"/>
<rect width="22.6725" height="162.06" transform="matrix(0.685563 -0.728014 0.727532 0.686074 570.218 134.946)" fill="black"/>
<rect width="22.6725" height="324.959" transform="matrix(0.685563 0.728014 -0.727532 0.686074 688.02 6.51733)" fill="#F79C43"/>
<rect x="535.802" y="22.6799" width="22.68" height="167.882" transform="rotate(-90 535.802 22.6799)" fill="#F79C43"/>
<rect x="451.861" y="252" width="22.68" height="251.823" transform="rotate(-90 451.861 252)" fill="black"/>
</svg>
