<svg width="27" height="40" viewBox="0 0 27 40" fill="none" xmlns="http://www.w3.org/2000/svg">
<path d="M1.21545 22.5951L20.7566 39.1398C23.0593 41.0923 26.6667 39.5055 26.6667 36.5422V3.45266C26.6673 2.78947 26.4703 2.14018 26.0994 1.58254C25.7285 1.02489 25.1993 0.582532 24.5753 0.308433C23.9513 0.0343343 23.2589 -0.0598854 22.581 0.0370575C21.9031 0.134 21.2684 0.417996 20.753 0.855035L1.21902 17.3998C0.836147 17.7236 0.529284 18.1229 0.319031 18.5709C0.108778 19.019 0 19.5054 0 19.9974C0 20.4895 0.108778 20.9759 0.319031 21.4239C0.529284 21.8719 0.836147 22.2713 1.21902 22.5951H1.21545Z" fill="black"/>
</svg>
