<svg width="27" height="40" viewBox="0 0 27 40" fill="none" xmlns="http://www.w3.org/2000/svg">
<path d="M25.4544 22.5951L5.91084 39.1398C3.60782 41.0923 1.31089e-06 39.5055 1.31089e-06 36.5422V3.45266C-0.000586305 2.78947 0.19639 2.14018 0.567344 1.58254C0.938298 1.02489 1.4675 0.582532 2.09159 0.308433C2.71567 0.0343343 3.40817 -0.0598854 4.08617 0.0370575C4.76417 0.134 5.39892 0.417996 5.9144 0.855035L25.4508 17.3998C25.8337 17.7236 26.1406 18.1229 26.3509 18.5709C26.5612 19.019 26.67 19.5054 26.67 19.9974C26.67 20.4895 26.5612 20.9759 26.3509 21.4239C26.1406 21.8719 25.8337 22.2713 25.4508 22.5951H25.4544Z" fill="black"/>
</svg>
