<svg id='blackHeart' width="32" height="26" viewBox="0 0 32 26" fill="none" xmlns="http://www.w3.org/2000/svg">
    <path d="M1.00098 9.2623C0.938482 12.2131 3.85078 19.4918 15.9999 25C28.1491 19.4918 31.0614 12.2131 30.9989 9.2623C31.1481 -1.69967 16.1493 -1.75383 16.001 9.0998C16.001 9.1537 16.0007 9.20787 15.9999 9.2623C15.9999 9.20787 16.0003 9.1537 16.001 9.0998C16.0006 -1.75383 1.00098 -1.69966 1.00098 9.2623Z" fill="black"/>
    <path d="M16.001 9.0998C16.0003 9.1537 15.9999 9.20787 15.9999 9.2623C16.0007 9.20787 16.001 9.1537 16.001 9.0998ZM16.001 9.0998C16.0006 -1.75383 1.00098 -1.69966 1.00098 9.2623C0.938482 12.2131 3.85078 19.4918 15.9999 25C28.1491 19.4918 31.0614 12.2131 30.9989 9.2623C31.1481 -1.69967 16.1493 -1.75383 16.001 9.0998Z" stroke="black"/>
</svg>